999
FreeCAD v2024.2 37179 (Git)
  0
SECTION
  2
HEADER
  9
$ACADVER
  1
AC1014
  9
$ACADMAINTVER
 70
     9
  9
$DWGCODEPAGE
  3
ANSI_1252
  9
$TEXTSTYLE
  7
STANDARD
  9
$DIMSTYLE
  2
STANDARD
  9
$DIMTXSTY
  7
STANDARD
  9
$CMLSTYLE
  2
STANDARD
  9
$LUNITS
 70
2
  9
$INSUNITS
 70
4
  9
$PEXTMAX
 10
50
 20
50
 30
50
  9
$PEXTMIN
 10
0
 20
0
 30
0
  9
$HANDSEED
  5
FFFF
  0
ENDSEC
  0
SECTION
  2
CLASSES
  0
CLASS
  1
ACDBDICTIONARYWDFLT
  2
AcDbDictionaryWithDefault
  3
ObjectDBX Classes
 90
        0
280
     0
281
     0
  0
CLASS
  1
XRECORD
  2
AcDbXrecord
  3
ObjectDBX Classes
 90
        0
280
     0
281
     0
  0
CLASS
  1
LWPOLYLINE
  2
AcDbPolyline
  3
ObjectDBX Classes
 90
        0
280
     0
281
     1
  0
ENDSEC
  0
SECTION
  2
TABLES
  0
TABLE
  2
VPORT
  5
20
330
0
100
AcDbSymbolTable
 70
     1
  0
VPORT
  5
21
330
20
100
AcDbSymbolTableRecord
100
AcDbViewportTableRecord
  2
*ACTIVE
 70
     0
  0
ENDTAB
  0
TABLE
  2
LTYPE
  5
22
330
0
100
AcDbSymbolTable
 70
     1
  0
LTYPE
  5
23
330
21
100
AcDbSymbolTableRecord
100
AcDbLinetypeTableRecord
  2
BYBLOCK
 70
     0
  3

 72
    65
 73
     0
 40
0.0
  0
LTYPE
  5
24
330
21
100
AcDbSymbolTableRecord
100
AcDbLinetypeTableRecord
  2
BYLAYER
 70
     0
  3

 72
    65
 73
     0
 40
0.0
  0
LTYPE
  5
25
330
21
100
AcDbSymbolTableRecord
100
AcDbLinetypeTableRecord
  2
CONTINUOUS
 70
     0
  3
Solid line
 72
    65
 73
     0
 40
0.0
  0
ENDTAB
  0
TABLE
  2
LAYER
  5
A35
330
0
100
AcDbSymbolTable
 70
3
  0
LAYER
  5
A36
330
A35
100
AcDbSymbolTableRecord
100
AcDbLayerTableRecord
  2
0
 70
   0
 62
   7
  6
CONTINUOUS
  0
LAYER
  5
A37
330
A35
100
AcDbSymbolTableRecord
100
AcDbLayerTableRecord
  2
none
 70
    0
 62
    7
  6
CONTINUOUS
  0
LAYER
  5
A38
330
A35
100
AcDbSymbolTableRecord
100
AcDbLayerTableRecord
  2
Sketch022
 70
    0
 62
    7
  6
CONTINUOUS
  0
ENDTAB
  0
TABLE
  2
STYLE
  5
70
330
0
100
AcDbSymbolTable
 70
     2
  0
STYLE
  5
71
330
70
100
AcDbSymbolTableRecord
100
AcDbTextStyleTableRecord
  2
STANDARD
 70
     0
 40
0.0
 41
1.0
 50
0.0
 71
     0
 42
2.5
  3
arial.ttf
  4

  0
STYLE
  5
72
330
70
100
AcDbSymbolTableRecord
100
AcDbTextStyleTableRecord
  2
ANNOTATIVE
 70
     0
 40
0.0
 41
1.0
 50
0.0
 71
     0
 42
2.5
  3
arial.ttf
  4

  0
ENDTAB
  0
TABLE
  2
VIEW
  5
73
330
0
100
AcDbSymbolTable
 70
     0
  0
ENDTAB
  0
TABLE
  2
UCS
  5
74
330
0
100
AcDbSymbolTable
 70
     0
  0
ENDTAB
  0
TABLE
  2
APPID
  5
75
330
0
100
AcDbSymbolTable
 70
     2
  0
APPID
  5
76
330
75
100
AcDbSymbolTableRecord
100
AcDbRegAppTableRecord
  2
ACAD
 70
     0
  0
APPID
  5
77
330
75
100
AcDbSymbolTableRecord
100
AcDbRegAppTableRecord
  2
ACADANNOTATIVE
 70
     0
  0
ENDTAB
  0
TABLE
  2
DIMSTYLE
  5
78
330
0
100
AcDbSymbolTable
 70
     2
  0
DIMSTYLE
105
79
330
78
100
AcDbSymbolTableRecord
100
AcDbDimStyleTableRecord
  2
STANDARD
 70
     0
  3

  4

  5

  6

  7

 40
0.0
 41
2.5
 42
0.625
 43
3.75
 44
1.25
 45
0.0
 46
0.0
 47
0.0
 48
0.0
140
2.5
141
2.5
142
0.0
143
0.03937007874016
144
1.0
145
0.0
146
1.0
147
0.625
 71
     0
 72
     0
 73
     0
 74
     0
 75
     0
 76
     0
 77
     1
 78
     8
170
     0
171
     3
172
     1
173
     0
174
     0
175
     0
176
     0
177
     0
178
     0
270
     2
271
     2
272
     2
273
     2
274
     3
340
71
275
     0
280
     0
281
     0
282
     0
283
     0
284
     8
285
     0
286
     0
287
     3
288
     0
  0
ENDTAB
  0
TABLE
  2
BLOCK_RECORD
  5
A01
330
0
100
AcDbSymbolTable
  70
5
  0
BLOCK_RECORD
  5
A02
330
A01
100
AcDbSymbolTableRecord
100
AcDbBlockTableRecord
  2
*MODEL_SPACE
  0
BLOCK_RECORD
  5
A03
330
A01
100
AcDbSymbolTableRecord
100
AcDbBlockTableRecord
  2
*PAPER_SPACE
  0
ENDTAB
  0
ENDSEC
  0
SECTION
  2
BLOCKS
  0
BLOCK
  5
A04
330
A02
100
AcDbEntity
  8
0
100
AcDbBlockBegin
  2
*MODEL_SPACE
 70
   0
 10
0
 20
0
 30
0
  3
*MODEL_SPACE
  1
 
  0
ENDBLK
  5
A05
330
A02
100
AcDbEntity
  8
0
100
AcDbBlockEnd
  0
BLOCK
  5
A06
330
A03
100
AcDbEntity
 67
1
  8
0
100
AcDbBlockBegin
  2
*PAPER_SPACE
 70
   0
 10
0
 20
0
 30
0
  3
*PAPER_SPACE
  1
 
  0
ENDBLK
  5
A07
330
A03
100
AcDbEntity
 67
    1
  8
0
100
AcDbBlockEnd
  0
ENDSEC
  0
SECTION
  2
ENTITIES
  0
LINE
  5
A08
330
A02
100
AcDbEntity
  8
Sketch022
100
AcDbLine
 10
-38.693529000
 20
178.296369000
 30
0.000000000
 11
-38.693529000
 21
-223.423449000
 31
0.000000000
  0
LINE
  5
A09
330
A02
100
AcDbEntity
  8
Sketch022
100
AcDbLine
 10
-38.693529000
 20
-223.423449000
 30
0.000000000
 11
368.577131000
 21
-223.423449000
 31
0.000000000
  0
LINE
  5
A0A
330
A02
100
AcDbEntity
  8
Sketch022
100
AcDbLine
 10
368.577131000
 20
-223.423449000
 30
0.000000000
 11
368.577131000
 21
178.296369000
 31
0.000000000
  0
LINE
  5
A0B
330
A02
100
AcDbEntity
  8
Sketch022
100
AcDbLine
 10
368.577131000
 20
178.296369000
 30
0.000000000
 11
-38.693529000
 21
178.296369000
 31
0.000000000
  0
CIRCLE
  5
A0C
330
A02
100
AcDbEntity
  8
Sketch022
100
AcDbCircle
 10
-13.618483000
 20
84.928150000
 30
0.000000000
 40
1.500000000
  0
CIRCLE
  5
A0D
330
A02
100
AcDbEntity
  8
Sketch022
100
AcDbCircle
 10
62.858533000
 20
163.928427000
 30
0.000000000
 40
1.500000000
  0
CIRCLE
  5
A0E
330
A02
100
AcDbEntity
  8
Sketch022
100
AcDbCircle
 10
286.665281000
 20
161.514725000
 30
0.000000000
 40
1.500000000
  0
CIRCLE
  5
A0F
330
A02
100
AcDbEntity
  8
Sketch022
100
AcDbCircle
 10
336.596306000
 20
161.537619000
 30
0.000000000
 40
1.500000000
  0
CIRCLE
  5
A10
330
A02
100
AcDbEntity
  8
Sketch022
100
AcDbCircle
 10
336.602175000
 20
-206.475858000
 30
0.000000000
 40
1.500000000
  0
CIRCLE
  5
A11
330
A02
100
AcDbEntity
  8
Sketch022
100
AcDbCircle
 10
286.601092000
 20
-206.478148000
 30
0.000000000
 40
1.500000000
  0
CIRCLE
  5
A12
330
A02
100
AcDbEntity
  8
Sketch022
100
AcDbCircle
 10
62.693672000
 20
-208.416337000
 30
0.000000000
 40
1.500000000
  0
CIRCLE
  5
A13
330
A02
100
AcDbEntity
  8
Sketch022
100
AcDbCircle
 10
-13.806761000
 20
-129.415325000
 30
0.000000000
 40
1.500000000
  0
CIRCLE
  5
A14
330
A02
100
AcDbEntity
  8
Sketch022
100
AcDbCircle
 10
9.622782000
 20
-23.002517000
 30
0.000000000
 40
6.000000000
  0
CIRCLE
  5
A15
330
A02
100
AcDbEntity
  8
Sketch022
100
AcDbCircle
 10
112.740734000
 20
-208.439646000
 30
0.000000000
 40
2.500000000
  0
CIRCLE
  5
A16
330
A02
100
AcDbEntity
  8
Sketch022
100
AcDbCircle
 10
138.738410000
 20
-208.443265000
 30
0.000000000
 40
2.500000000
  0
CIRCLE
  5
A17
330
A02
100
AcDbEntity
  8
Sketch022
100
AcDbCircle
 10
201.056316000
 20
-208.471468000
 30
0.000000000
 40
2.500000000
  0
CIRCLE
  5
A18
330
A02
100
AcDbEntity
  8
Sketch022
100
AcDbCircle
 10
227.049053000
 20
-208.480165000
 30
0.000000000
 40
2.500000000
  0
CIRCLE
  5
A19
330
A02
100
AcDbEntity
  8
Sketch022
100
AcDbCircle
 10
9.517871000
 20
-5.124557000
 30
0.000000000
 40
4.000000000
  0
CIRCLE
  5
A1A
330
A02
100
AcDbEntity
  8
Sketch022
100
AcDbCircle
 10
9.402287000
 20
-41.076945000
 30
0.000000000
 40
4.000000000
  0
CIRCLE
  5
A1B
330
A02
100
AcDbEntity
  8
Sketch022
100
AcDbCircle
 10
353.585858000
 20
-79.752112000
 30
0.000000000
 40
2.500000000
  0
CIRCLE
  5
A1C
330
A02
100
AcDbEntity
  8
Sketch022
100
AcDbCircle
 10
353.589669000
 20
-53.774984000
 30
0.000000000
 40
2.500000000
  0
CIRCLE
  5
A1D
330
A02
100
AcDbEntity
  8
Sketch022
100
AcDbCircle
 10
353.612277000
 20
8.555522000
 30
0.000000000
 40
2.500000000
  0
CIRCLE
  5
A1E
330
A02
100
AcDbEntity
  8
Sketch022
100
AcDbCircle
 10
353.616750000
 20
34.560674000
 30
0.000000000
 40
2.500000000
  0
CIRCLE
  5
A1F
330
A02
100
AcDbEntity
  8
Sketch022
100
AcDbCircle
 10
113.077913000
 20
163.495649000
 30
0.000000000
 40
2.500000000
  0
CIRCLE
  5
A20
330
A02
100
AcDbEntity
  8
Sketch022
100
AcDbCircle
 10
139.070341000
 20
163.485833000
 30
0.000000000
 40
2.500000000
  0
CIRCLE
  5
A21
330
A02
100
AcDbEntity
  8
Sketch022
100
AcDbCircle
 10
201.387241000
 20
163.451061000
 30
0.000000000
 40
2.500000000
  0
CIRCLE
  5
A22
330
A02
100
AcDbEntity
  8
Sketch022
100
AcDbCircle
 10
227.393363000
 20
163.455539000
 30
0.000000000
 40
2.500000000
  0
ARC
  5
A23
330
A02
100
AcDbEntity
  8
Sketch022
100
AcDbCircle
 10
311.284003000
 20
137.313738819
 30
0.000000000
 40
6.844969072
100
AcDbArc
 50
122.649192473
 51
-123.859315711
  0
LINE
  5
A24
330
A02
100
AcDbEntity
  8
Sketch022
100
AcDbLine
 10
307.470290166
 20
131.629620944
 30
0.000000000
 11
322.275419000
 21
124.643405365
 31
0.000000000
  0
ARC
  5
A25
330
A02
100
AcDbEntity
  8
Sketch022
100
AcDbCircle
 10
328.817654000
 20
140.896292000
 30
0.000000000
 40
17.520193000
100
AcDbArc
 50
-111.926144733
 51
-67.984152894
  0
LINE
  5
A26
330
A02
100
AcDbEntity
  8
Sketch022
100
AcDbLine
 10
348.751310000
 20
131.158063000
 30
0.000000000
 11
335.385326520
 21
124.653667815
 31
0.000000000
  0
ARC
  5
A27
330
A02
100
AcDbEntity
  8
Sketch022
100
AcDbCircle
 10
346.735318000
 20
137.307616912
 30
0.000000000
 40
6.471571452
100
AcDbArc
 50
-71.849440933
 51
69.545023739
  0
LINE
  5
A28
330
A02
100
AcDbEntity
  8
Sketch022
100
AcDbLine
 10
335.433592000
 20
149.870100000
 30
0.000000000
 11
348.996946000
 21
143.371137000
 31
0.000000000
  0
ARC
  5
A29
330
A02
100
AcDbEntity
  8
Sketch022
100
AcDbCircle
 10
328.810919000
 20
134.744020000
 30
0.000000000
 40
16.512361849
100
AcDbArc
 50
66.354686200
 51
113.204876226
  0
LINE
  5
A2A
330
A02
100
AcDbEntity
  8
Sketch022
100
AcDbLine
 10
307.591184000
 20
143.077131000
 30
0.000000000
 11
322.304716000
 21
149.920561647
 31
0.000000000
  0
ARC
  5
A2B
330
A02
100
AcDbEntity
  8
Sketch022
100
AcDbCircle
 10
328.754137000
 20
-185.856995000
 30
0.000000000
 40
17.503865500
100
AcDbArc
 50
68.123899505
 51
112.173542463
  0
LINE
  5
A2C
330
A02
100
AcDbEntity
  8
Sketch022
100
AcDbLine
 10
307.925779000
 20
-176.268755000
 30
0.000000000
 11
322.147947000
 21
-169.647628537
 31
0.000000000
  0
ARC
  5
A2D
330
A02
100
AcDbEntity
  8
Sketch022
100
AcDbCircle
 10
311.292050000
 20
-182.327801282
 30
0.000000000
 40
6.931365111
100
AcDbArc
 50
119.055573648
 51
-121.055612009
  0
LINE
  5
A2E
330
A02
100
AcDbEntity
  8
Sketch022
100
AcDbLine
 10
307.716368000
 20
-188.265673000
 30
0.000000000
 11
322.253141000
 21
-194.989690689
 31
0.000000000
  0
ARC
  5
A2F
330
A02
100
AcDbEntity
  8
Sketch022
100
AcDbCircle
 10
328.606593000
 20
-180.303537000
 30
0.000000000
 40
16.001545628
100
AcDbArc
 50
-113.394038244
 51
-64.632554694
  0
LINE
  5
A30
330
A02
100
AcDbEntity
  8
Sketch022
100
AcDbLine
 10
349.412626000
 20
-188.165727587
 30
0.000000000
 11
335.462004000
 21
-194.762195393
 31
0.000000000
  0
ARC
  5
A31
330
A02
100
AcDbEntity
  8
Sketch022
100
AcDbCircle
 10
346.597529000
 20
-182.271589193
 30
0.000000000
 40
6.531893947
100
AcDbArc
 50
-64.470411833
 51
64.293177251
  0
LINE
  5
A32
330
A02
100
AcDbEntity
  8
Sketch022
100
AcDbLine
 10
335.276090000
 20
-169.613552122
 30
0.000000000
 11
349.430845000
 21
-176.386187000
 31
0.000000000
  0
CIRCLE
  5
A33
330
A02
100
AcDbEntity
  8
Sketch022
100
AcDbCircle
 10
-13.741913000
 20
-79.432653000
 30
0.000000000
 40
2.500000000
  0
CIRCLE
  5
A34
330
A02
100
AcDbEntity
  8
Sketch022
100
AcDbCircle
 10
-13.624418000
 20
34.954716000
 30
0.000000000
 40
2.500000000
  0
ENDSEC
  0
SECTION
  2
OBJECTS
  0
DICTIONARY
  5
F000
330
0
100
AcDbDictionary
  3
ACAD_GROUP
350
F001
  0
DICTIONARY
  5
F001
330
F000
100
AcDbDictionary
  0
ENDSEC
  0
EOF